<svg id="Calque_1" data-name="Calque 1" xmlns="http://www.w3.org/2000/svg" viewBox="0 0 1782.51 352.56"><defs><style>.cls-1{fill:#fff;}.cls-2{fill:#82bb27;}.cls-3{fill:none;stroke:#82bb27;stroke-miterlimit:10;stroke-width:18px;}</style></defs><rect class="cls-1" x="299.97" y="2.34" width="1482.54" height="347.87"/><path class="cls-2" d="M547.4,125.57h87.4c45.86,0,67.56,22.62,67.56,60.12,0,23.87-15.81,39.36-36.57,49,13,6.2,18.59,18,20.76,30.37l4.65,26.34c3.1,17.67,12.7,35,27.58,44.94H670.12c-11.15-5-15.18-18.29-18-37.81l-3.41-23.86c-2.48-16.74-9.3-28.83-27.89-28.83H584.28v90.5H547.4Zm36.88,35v50.2h49.59c21.07,0,30.06-9,30.06-25.1s-10.85-25.1-29.13-25.1Z" transform="translate(-133.64 -64.37)"/><path class="cls-2" d="M796.87,178.25c43.39,0,70.35,31,72.52,88.64h-110c2.79,27,18.9,38.43,39.66,38.43,23.87,0,31.3-14.88,34.4-21.7h34.09c-1.86,21.08-21.69,55.79-68.18,55.79-45.24,0-74.37-37.19-74.37-79.34C725,218.23,753.49,178.25,796.87,178.25Zm-35,57.65h71C830.65,217,818,206.15,798.11,206.15,781.69,206.15,767.43,215.13,761.85,235.9Z" transform="translate(-133.64 -64.37)"/><path class="cls-2" d="M991.18,336.31V234c0-14.57-11.16-23.25-27-23.25-25.1,0-31,22-31,38.74v86.78H897.9v-155H932v12.4a73.57,73.57,0,0,1,44.63-15.5c27,0,49.89,14.26,49.89,48.35V336.31Z" transform="translate(-133.64 -64.37)"/><path class="cls-2" d="M1102.74,125.57v55.78h21.7v34.09h-21.7v80c0,9.3,6.2,11.78,12.4,11.78,5.58,0,9.3-1.24,11.47-2.48v31c-2.79.93-10.23,3.72-24.49,3.72-23.55,0-33.47-14.26-33.47-29.14V215.44h-18.59V181.35h18.59V125.57Z" transform="translate(-133.64 -64.37)"/><path class="cls-2" d="M1222.68,178.25c46.48,0,74.37,40,74.37,81.82,0,39.05-24.79,79.34-74.37,79.34s-74.38-40.29-74.38-79.34C1148.3,218.23,1176.19,178.25,1222.68,178.25Zm0,34.09c-24.49,0-40.29,18.6-40.29,46.49,0,29.75,16.42,46.49,40.29,46.49S1263,288.58,1263,258.83C1263,230.94,1247.16,212.34,1222.68,212.34Z" transform="translate(-133.64 -64.37)"/><path class="cls-2" d="M1509,248.91c-2.17,54.86-37.81,90.5-90.8,90.5-49.59,0-93.29-36.57-93.29-108.47s41.22-108.47,93.29-108.47,86.15,32.54,90.8,92.66H1467.5c-3.41-39.35-23.55-55.78-50.82-55.78-32.23,0-53.31,23.24-53.31,71.59s21.39,71.59,53.31,71.59c27.58,0,41.21-13.64,53.61-53.62Z" transform="translate(-133.64 -64.37)"/><path class="cls-2" d="M1682.88,304.08a66.56,66.56,0,0,0,13.95-1.86v34.09a143,143,0,0,1-22,1.86c-18.91,0-27.9-4-35-16.12-5.58,4.34-21.08,17.36-48.35,17.36-34.71,0-60.74-24.18-60.74-51.45,0-35.33,29.75-49.58,72.52-49.58H1633v-7.44c0-16.74-13-27.89-31.61-27.89-19.22,0-29.13,9.6-29.13,27.89h-37.81c0-33.47,29.75-52.69,67.87-52.69,35,0,64.77,15.81,64.77,49.28v63.22C1667.08,300.05,1673.28,304.08,1682.88,304.08Zm-86.46,10.53c25.41,0,36.57-21.69,36.57-34.09V265c-53.93-2.48-63.84,9.92-63.84,26.65C1569.15,304.08,1579.68,314.61,1596.42,314.61Z" transform="translate(-133.64 -64.37)"/><path class="cls-2" d="M1783.6,211.72c-22.62,0-35.95,9.3-35.95,46.8v77.79h-35.33v-155h34.09v17.36c8.68-10.54,19.22-20.46,39-20.46a60.87,60.87,0,0,1,24.79,5l-1.86,34.09C1801.27,214.2,1795.38,211.72,1783.6,211.72Z" transform="translate(-133.64 -64.37)"/><path class="cls-3" d="M278.61,73.37c6.18,1.09,12.43,1.91,18.54,3.32,27.29,6.27,50,20.29,68,41.59a124,124,0,0,1,28.4,63c4,26.62-1.19,51.89-10.85,76.5-10.51,26.78-25.3,51.18-42.13,74.39a543,543,0,0,1-62,71.38c-5.78,5.6-13.22,5.87-19,.48-37.71-35.07-70.35-74.14-94.09-120.14-10.87-21.07-18.81-43.19-21.73-66.84-3.56-28.72,1.44-55.84,16.12-80.95,14-24,33.93-41.4,59.27-52.56A122.93,122.93,0,0,1,256.18,74a25.55,25.55,0,0,0,2.83-.62ZM268.9,259.55a60.25,60.25,0,0,0,60-60c0-33-27.33-60.35-60.2-60.16a60.07,60.07,0,1,0,.2,120.13Z" transform="translate(-133.64 -64.37)"/></svg>